<?xml version="1.0" standalone="no"?>
<!DOCTYPE svg PUBLIC "-//W3C//DTD SVG 20010904//EN"
 "http://www.w3.org/TR/2001/REC-SVG-20010904/DTD/svg10.dtd">
<svg version="1.0" xmlns="http://www.w3.org/2000/svg"
 width="512.000000pt" height="512.000000pt" viewBox="0 0 512.000000 512.000000"
 preserveAspectRatio="xMidYMid meet">
<metadata>
Created by potrace 1.14, written by Peter Selinger 2001-2017
</metadata>
<g transform="translate(0.000000,512.000000) scale(0.100000,-0.100000)"
fill="#000000" stroke="none">
<path d="M4045 4950 c-11 -4 -62 -51 -112 -104 l-93 -97 0 -94 0 -95 -574 0
-574 0 -214 -171 c-117 -94 -219 -178 -226 -187 -9 -12 -12 -40 -10 -89 5
-101 12 -107 138 -111 l100 -4 0 -199 0 -199 -205 0 c-223 0 -259 -7 -271 -53
-3 -13 -4 -105 -2 -205 3 -158 5 -184 21 -199 16 -17 53 -18 515 -21 273 -1
507 0 520 3 12 3 31 14 42 25 18 18 20 34 20 200 0 196 -8 232 -52 244 -13 3
-114 6 -225 6 l-203 0 0 200 0 200 600 0 600 0 0 -1160 0 -1160 -120 0 -120 0
0 230 0 230 80 160 c82 164 89 191 58 232 l-17 23 -1020 3 -1020 2 -3 421 -3
420 -23 18 c-13 9 -60 30 -105 45 -45 15 -221 77 -392 138 -784 278 -862 305
-896 313 -31 8 -83 -15 -93 -40 -8 -21 -8 -3633 0 -3663 15 -55 -133 -52 2394
-52 2534 0 2381 -3 2395 53 3 12 4 428 3 924 l-3 902 -98 98 -97 98 -140 3
-140 4 0 879 0 879 205 0 c214 0 254 7 269 45 3 9 6 113 6 231 0 232 -6 265
-52 278 -13 3 -114 6 -225 6 l-201 0 -4 100 -3 100 -85 86 c-47 47 -97 92
-112 100 -30 15 -198 19 -233 4z"/>
</g>
</svg>
